. 
  
http://www.torrentday.com/        :     The Hottest Private Tracker On The Net!!!
 
http://www.torrentday.com          :     Once & For all ;)


               www . TorrentDay . Com 

(((((((((((((= Enjoy No RAR releases =))))))))))))))))))))


...................................NFO:....................................

.[pre]  
    *********** ****    ****      ***      ******** *********** ****    *** **********
           *+*     +*+*+* *+*+*+   *+* *+*   *+*    *+*    *+*     *+*+*   *+* *+*        
           +*+     +*+ +*+*+ +*+  +*+   +*+  +*+           +*+     *+*+*+  +*+ +*+        
           +$+     +$+  +*+  +$+ +$++*++$++* *$*           +$+     +$+ +*+ +$+ +$++*++$  
           +$+     +$+       +$+ +$+     +$+ +$+   +$+$    +$+     +$+  +$+$+$ +$+        
           $+$     $+$       $+$ $+$     $+$ $+$    $+$    $+$     $+$   $+$+$ $+$        
       $$$$$$$$$$$ $$$       $$$ $$$     $$$  $$$$$$$$ $$$$$$$$$$$ $$$    $$$$ $$$$$$$$$$     
                                                



                           Another Fine Release Brought to you from - IMAGiNE                   
                                                 

********************************************************************************************************************                                
                        Unstoppable 2010 720p BRRiP AC3 XViD - IMAGiNE
********************************************************************************************************************

Ripper ...........: IMAGiNE                                        IMDB Rating.......:7.7/10                             
Video Codec.......: XVID                                         Release Date......:23/01/11
Audio Codec.......:AC3                                           Theatre Date......:12/11/10
Audio Bitrate.....:640                                              Runtime.......:1h 38mn
Subtitles.........:NIL                                                  Language..........:ENGLISH
Resolution...... 1280 x 544                                      IMDb URL..........:http://www.imdb.com/title/tt0477080/


[color=yellow]DETAILS:[/color]

Video
ID                               : 0
Format                           : MPEG-4 Visual
Format profile                   : Advanced Simple@L5
Format settings, BVOP            : Yes
Format settings, QPel            : No
Format settings, GMC             : No warppoints
Format settings, Matrix          : Default (H.263)
Muxing mode                      : Packed bitstream
Codec ID                         : XVID
Codec ID/Hint                    : XviD
Duration                         : 1h 38mn
Bit rate                         : 3 686 Kbps
Width                            : 1 280 pixels
Height                           : 544 pixels
Display aspect ratio             : 2.35:1
Frame rate                       : 23.976 fps
Color space                      : YUV
Chroma subsampling               : 4:2:0
Bit depth                        : 8 bits
Scan type                        : Progressive
Bits/(Pixel*Frame)               : 0.221
Stream size                      : 2.54 GiB (85%)
Writing library                  : XviD 1.1.2 (UTC 2006-11-01)

Audio
ID                               : 1
Format                           : AC-3
Format/Info                      : Audio Coding 3
Mode extension                   : CM (complete main)
Codec ID                         : 2000
Duration                         : 1h 38mn
Bit rate mode                    : Constant
Bit rate                         : 640 Kbps
Channel(s)                       : 6 channels
Channel positions                : Front: L C R, Side: L R, LFE
Sampling rate                    : 48.0 KHz
Bit depth                        : 16 bits
Stream size                      : 451 MiB (15%)
Alignment                        : Aligned on interleaves
Interleave, duration             : 42 ms (1.00 video frame)
Interleave, preload duration     : 512 ms



[color=yellow]SOURCES:[/color]

VIDEO:Unstoppable.2010.BluRay.1080p.DTS.x264-CHD  .......Thanks 
AUDIO:Unstoppable.2010.BluRay.1080p.DTS.x264-CHD  .......Thanks 

[color=yellow]NOTES:[/color]

IMAGiNE bringing you another release..........Unstoppable 2010 720p

Ok this is pretty much a straight forward rip off the 1080p CHD release.
We made a short script to resize the file and to increase brightness +2 and must admit we also 
tweaked the rgb colours and we thought they looked too blue/green on the source we used.
Yes we know its a bluray but check sample and see what you think :P
Also convert the DTS audio to Some nice AC3 640 audio and then remuxed.

Enjoy folks :)

[color=yellow]SCREENS:[/color]



[color=yellow]GREETS:[/color]

FLAWL3SS,ViSiON,FUSiON,Rx,SecretMyth,BirdFlu,ELEKTRI4KA and Autotron
And to all the other p2p grps past and present 

[COLOR=RED]Looking for these,syncers,cammers,silver supplier.....Have anything to offer????......
Contact us imaginegroup@hushmail.com[/COLOR][/pre]